<?xml version="1.0" encoding="iso-8859-1"?>
<!-- Generator: Adobe Illustrator 26.0.1, SVG Export Plug-In . SVG Version: 6.00 Build 0)  -->
<svg version="1.1" id="Layer_1" xmlns="http://www.w3.org/2000/svg" xmlns:xlink="http://www.w3.org/1999/xlink" x="0px" y="0px"
	 viewBox="0 0 500 500" style="enable-background:new 0 0 500 500;" xml:space="preserve">
<g>
</g>
<g>
	<path style="fill:#EC1C24;" d="M118.019,291.934H99.937v-83.139h18.082c23.86,0,37.468,15.099,37.468,41.756
		C155.301,276.835,141.693,291.934,118.019,291.934 M372.841,217.37v-4.474c-2.796,0.932-6.897,2.423-8.761,3.355
		C367.062,216.438,370.045,216.811,372.841,217.37 M174.314,290.256l-5.033,7.084l1.864-19.946
		c1.491-16.218,11.371-27.962,18.455-34.299c-1.305,0.186-2.983,0.373-4.66,0.746l-17.895,3.728l12.862-12.862
		c4.474-4.474,10.625-7.643,16.031-10.625c0.559-0.373,1.305-0.746,1.864-1.118c-6.338-18.641-19.2-34.299-37.096-43.62
		c-11.744-6.152-23.488-9.134-39.705-9.693v-0.186H88.566c-25.725,0-37.841-0.373-46.789-2.423
		c-7.643-1.864-14.54-6.338-14.726-6.338L25,159.397l0.186,2.423c0,0.746,1.864,18.082,22.742,33.367
		c3.915,2.983,6.897,5.779,6.897,16.031v93.205c0,9.88-1.864,12.676-6.524,15.472c-4.847,2.983-15.286,9.134-15.286,9.134
		l-3.542,2.051h84.444c23.674,0,38.4-3.915,54.432-14.726c2.237-1.491,4.287-3.169,6.338-4.847
		C173.382,304.423,173.382,296.967,174.314,290.256 M336.118,292.493c0.932-1.491,1.305-3.355,0.559-5.219l-5.219-14.354
		l13.049,7.829c1.305,0.746,2.423,1.678,3.355,2.61l8.016-0.559c5.965-0.559,11.744,0.373,16.963,2.237v-40.824
		c-2.983,0.932-5.219,2.051-6.152,2.983l-3.355,2.983l-3.542-2.796c-2.423-1.864-5.779-2.796-9.507-2.796
		c-6.152,0-12.117,2.61-15.845,7.084c-2.423,2.796-4.474,5.592-6.524,8.388v32.435C330.899,294.917,334.254,294.917,336.118,292.493
		 M433.611,179.342c-11.744-6.152-23.488-9.134-39.705-9.693v-0.186H361.47c-25.725,0-37.841-0.373-46.789-2.423
		c-7.643-1.864-14.54-6.338-14.726-6.338l-2.051-1.305l0.186,2.423c0,0.746,1.864,18.082,22.742,33.367
		c4.101,2.983,6.897,5.779,6.897,16.031v6.711c4.474-2.796,9.32-5.219,14.726-7.27c-1.864,1.678-4.101,3.915-5.965,6.524
		c3.542-2.423,8.202-4.474,15.472-5.779c9.693-1.678,16.963-0.932,20.691-0.186v-2.61h18.082c23.86,0,37.468,15.099,37.468,41.756
		c0,26.284-13.608,41.383-37.468,41.383h-7.084c6.338,5.779,10.253,13.608,10.253,22.369c0,6.338-2.051,12.117-5.592,16.963
		c22.556-0.186,37.096-4.287,52.568-14.726c6.897-4.66,12.676-9.88,17.336-15.845c10.625-13.422,16.777-31.876,16.777-50.703
		C475.366,219.421,459.708,192.95,433.611,179.342"/>
	<path style="fill:#EC1C24;" d="M201.53,189.036c-1.678-18.082,6.897-28.148,10.812-32.062c8.575-8.761,20.132-13.981,37.282-13.049
		c26.843,1.491,39.892,19.946,39.892,39.892c0,9.693-4.847,22.556-11.744,31.503c-0.373-0.373-0.746-0.746-1.118-1.305
		c-1.305-1.305-2.796-2.61-4.474-4.101c-4.474-3.915-9.507-8.575-12.862-13.608c7.456-13.421,3.169-32.435-12.489-32.435
		c-9.134,0-16.777,8.388-16.031,19.387c-2.423,5.219-3.542,12.862-3.169,19.573c-4.474-2.796-8.202-5.965-10.066-10.066
		l-5.779-13.794l-4.474,14.167c-1.118,3.355-1.305,7.084-0.746,10.812l0,0C204.513,200.966,202.089,195.933,201.53,189.036
		 M183.821,238.434c7.643-7.643,23.488-12.489,24.42-16.59c1.118-4.101-7.084-11.185-10.253-12.489
		c11.185-0.373,16.777,1.678,16.777,1.678c-2.983-4.287-3.915-10.812-2.237-16.031c6.152,14.54,27.961,16.963,33.367,29.08
		c-0.746-5.219-5.779-11.185-11.557-14.54c-2.983-8.016-0.746-22.742,2.983-26.657c-1.305,21.064,28.707,33.181,35.045,48.467
		c-3.728-13.049-17.709-21.437-24.42-29.266c-2.237-5.219-0.559-13.981,1.864-17.15c-0.746,14.167,14.54,25.165,22.742,32.995
		c9.693,9.32,12.303,17.523,10.998,24.233c2.051,0.559,5.033,2.61,4.474,6.152c2.983-0.746,6.152-4.287,6.897-6.338
		c1.491,10.439-4.66,21.624-11.557,24.979c0,0,1.864-5.033-1.305-8.761c-3.169-3.728-11.93-3.728-14.913-3.542
		c0,0,3.728-5.406,2.237-8.202c-1.864-3.355-19.014-1.864-26.843,0.932c2.61-0.373,8.761,0.373,10.998,1.305
		c-1.118,1.864-4.287,9.32-2.051,11.744c2.051,2.051,4.847-1.491,4.847-1.491s-2.61,8.388-0.746,10.253
		c1.864,1.864,6.152,0.559,6.152,0.559c-2.61,6.524-12.676,10.998-19.573,10.998c2.423-0.746,6.711-5.219,7.27-8.016
		c-1.864,0.932-6.711,1.491-8.388,1.118c2.237-0.932,6.897-6.711,5.406-13.422c-2.051-9.507-15.472-10.812-22.183-6.152
		c2.237-6.524,8.761-12.489,13.794-14.354c-2.983-1.118-6.524-1.864-10.253-2.61c4.287-3.542,15.099-6.338,20.505-6.152
		c-8.388-2.051-23.674,0.559-30.571,8.761c2.237,0,8.016,1.118,10.253,1.864c-9.507,1.678-22.742,10.625-26.47,14.913
		c0.932-5.592,2.61-10.253,1.305-13.608C200.971,238.061,195.192,236.011,183.821,238.434 M270.688,239.553
		c0,0-2.237-7.456-10.066-10.253C262.113,234.52,264.164,239.553,270.688,239.553 M388.686,314.117
		c0-15.472-15.099-27.589-32.249-25.911c4.847,0.746,11.744,5.965,11.744,13.422c0,12.117-15.099,15.845-23.488,13.981
		c8.948-6.152,7.643-23.86-2.983-30.198c3.542,9.88-7.27,19.759-17.709,11.185c-5.779-4.847-19.387-16.031-25.538-20.878
		c-5.965-4.847-13.049-2.051-15.845-4.101c-3.169-2.423-1.118-9.134-5.406-11.744c-3.728-2.051-7.27-0.932-11.371-2.423
		c-3.915-1.305-6.711-4.287-6.152-8.202c-1.678,2.796-1.678,7.829,1.118,11.185c2.983,3.355,7.643,5.406,9.693,9.134
		c2.61,4.847-1.864,11.371,9.693,20.319c5.406,4.287,13.981,11.371,19.573,16.218c9.32,8.202,4.287,18.455,5.592,27.402
		c1.491,10.439,9.88,16.218,15.472,17.709c-4.847-4.287-6.711-15.472,0.186-22.183c0.373,8.761,6.711,22.369,20.878,26.097
		c15.286,4.101,31.503-4.66,34.859-10.625c-5.965,2.61-16.963-0.186-21.437-4.474C372.841,342.451,388.686,329.962,388.686,314.117
		 M296.04,310.202c-4.847-4.101-11.93-10.066-17.336-14.354c-6.152,10.439-19.014,24.047-32.249,24.047
		c-24.233,0-36.35-34.299-9.134-62.447c-1.491-0.559-3.169-0.559-3.728-0.559c-2.237,0-4.66,0.559-6.152,1.678l-10.625,7.456
		l2.423-13.608c0.186-0.746,0.559-1.491,0.932-2.051c-6.152,2.983-12.303,7.456-14.54,9.88l-10.439,11.557l1.118-16.218
		c0.186-1.305,0.559-2.423,0.746-3.728c0.559-2.61,1.305-5.779,0.746-6.897c-0.186-0.373-0.373-0.559-0.746-0.932
		c-5.033,3.915-18.827,16.031-20.319,33.927c0,0,2.61-3.728,5.033-4.66c1.491-0.559,2.796,0.186,1.491,4.66
		c-0.559,1.678-13.794,37.655,12.303,62.447c0,0-2.796-7.27-1.118-9.507c0.932-1.118,1.864-1.118,3.355,0.746
		c1.118,1.491,2.237,2.983,3.542,4.287l0,0c2.237,2.423,4.474,4.66,7.084,6.711c7.829,5.406,18.455,9.88,30.385,9.88
		c32.249,0,49.399-22.183,58.906-40.824C296.972,311.134,296.599,310.575,296.04,310.202 M351.59,232.283
		c-24.047,1.118-44.738,21.624-55.364,35.977c1.864,0.559,3.915,1.491,5.779,2.983c2.237,1.864,5.592,4.474,8.948,7.456
		c2.796-6.152,9.32-19.014,19.2-30.385c8.948-10.253,24.606-11.185,32.808-5.033c5.219-4.847,23.488-9.32,32.995-6.524
		c-5.779-6.338-18.268-14.913-32.062-14.913c-11.371,0-17.709,5.592-19.387,2.983c-2.051-3.169,7.643-8.016,7.643-8.016
		c-13.422,0.559-23.115,16.218-27.029,14.354c-2.423-1.118,3.542-8.761,3.542-8.761c-12.303,7.084-22.369,22.183-24.606,31.317
		C315.613,240.112,337.423,230.232,351.59,232.283 M355.505,293.612c2.423,0.373,7.27,3.542,7.27,8.016
		c0,2.61-1.305,4.847-3.728,6.338c-1.118,0.746-2.423,1.305-3.915,1.678c0.746-2.61,1.118-5.406,1.118-8.202
		C355.878,296.408,355.505,293.612,355.505,293.612"/>
</g>
</svg>
